<svg width="512" height="512" viewBox="0 0 512 512" fill="none" xmlns="http://www.w3.org/2000/svg">
<g clip-path="url(#clip0_111_4)">
<path d="M256 352.4C297.237 352.4 330.666 318.971 330.666 277.734C330.666 236.496 297.237 203.067 256 203.067C214.762 203.067 181.333 236.496 181.333 277.734C181.333 318.971 214.762 352.4 256 352.4Z" fill="#4285F4"/>
<path d="M426.667 192V299.067V362.667C426.667 367.174 425.76 371.44 424.48 375.52C420.293 388.64 410 398.933 396.88 403.12C392.8 404.427 388.533 405.307 384.027 405.307H176L218.667 447.974H352H384C395.787 447.974 407.013 445.573 417.227 441.28C427.44 436.96 436.64 430.72 444.347 422.987C448.213 419.12 451.707 414.907 454.773 410.347C460.907 401.28 465.333 390.934 467.6 379.84C468.747 374.294 469.333 368.534 469.333 362.64V330.64V256.4V224L453.333 173.333L424.48 179.147C425.76 183.227 426.667 187.493 426.667 192Z" fill="#EA4335"/>
<path d="M85.3332 192C85.3332 187.493 86.2398 183.227 87.5198 179.147C91.7065 166.027 102 155.733 115.12 151.547C119.226 150.24 123.493 149.333 128 149.333H384C388.506 149.333 392.773 150.24 396.853 151.52L397.333 120L352 106.667L309.333 64H273.493H256H238.506H202.666L160 106.667H128C80.8798 106.667 42.6665 144.88 42.6665 192V224V277.333L85.3332 320V192Z" fill="#4285F4"/>
<path d="M384 106.667H352L396.88 151.547C400.16 152.587 403.253 154.027 406.133 155.787C411.893 159.307 416.72 164.133 420.24 169.893C422 172.773 423.44 175.867 424.48 179.147L469.333 224V192C469.333 144.88 431.12 106.667 384 106.667Z" fill="#34A853"/>
<path d="M128 448H234.373L191.707 405.333H128C104.48 405.333 85.3332 386.187 85.3332 362.667V298.96L42.6665 256.293V362.667C42.6665 409.787 80.8798 448 128 448Z" fill="#FBBC04"/>
</g>
<defs>
<clipPath id="clip0_111_4">
<rect width="512" height="512" fill="white"/>
</clipPath>
</defs>
</svg>
