<svg width="600" height="600" viewBox="0 0 600 600" fill="none" xmlns="http://www.w3.org/2000/svg">
<path d="M300 412.969C348.325 412.969 387.5 373.794 387.5 325.47C387.5 277.144 348.325 237.969 300 237.969C251.675 237.969 212.5 277.144 212.5 325.47C212.5 373.794 251.675 412.969 300 412.969Z" fill="#4285F4"/>
<path d="M500 225V350.469V425C500 430.282 498.938 435.281 497.438 440.062C492.531 455.437 480.469 467.5 465.094 472.406C460.313 473.938 455.312 474.969 450.032 474.969H206.25L256.25 524.969H412.5H450C463.813 524.969 476.968 522.156 488.938 517.125C500.906 512.062 511.687 504.75 520.719 495.688C525.25 491.156 529.344 486.219 532.937 480.875C540.125 470.25 545.312 458.126 547.969 445.125C549.313 438.626 550 431.876 550 424.969V387.469V300.469V262.5L531.25 203.125L497.438 209.938C498.938 214.719 500 219.718 500 225Z" fill="#EA4335"/>
<path d="M100 225C100 219.718 101.062 214.719 102.562 209.938C107.469 194.563 119.531 182.5 134.906 177.594C139.718 176.062 144.719 175 150 175H450C455.281 175 460.281 176.063 465.062 177.563L465.625 140.625L412.5 125L362.5 75H320.5H300H279.499H237.499L187.5 125H150C94.7812 125 50 169.781 50 225V262.5V325L100 375V225Z" fill="#4285F4"/>
<path d="M450 125H412.5L465.094 177.594C468.938 178.813 472.562 180.5 475.937 182.563C482.687 186.688 488.344 192.343 492.469 199.093C494.531 202.468 496.219 206.094 497.438 209.938L550 262.5V225C550 169.781 505.219 125 450 125Z" fill="#34A853"/>
<path d="M150 525H274.656L224.657 475H150C122.438 475 100 452.563 100 425V350.344L50 300.343V425C50 480.219 94.7812 525 150 525Z" fill="#FBBC04"/>
</svg>
